<svg width="144" height="40" viewBox="0 0 144 40" fill="none" xmlns="http://www.w3.org/2000/svg">
<rect x="0.678589" width="38.4646" height="40" rx="10" fill="url(#paint0_linear_739_2)"/>
<path d="M8.63495 30.517C7.85192 30.5293 7.50718 30.0824 7.76081 29.4471C8.37025 27.9192 9.01662 26.4048 9.65684 24.8892C10.6652 22.5031 11.6785 20.1208 12.693 17.7384C13.5659 15.6873 14.4425 13.6386 15.3203 11.5899C15.7081 10.685 16.1181 9.78988 16.4924 8.88003C16.6451 8.50698 16.8839 8.34076 17.2754 8.36662C17.6485 8.39124 17.8516 8.54268 18.0228 8.92558C18.647 10.323 19.3537 11.6834 20.0136 13.0661C21.2374 15.6282 22.4526 18.194 23.6629 20.761C23.9781 21.4308 23.8205 21.8149 23.1778 22.1867C20.3226 23.8365 17.4737 25.4962 14.6198 27.1484C12.741 28.2368 10.8573 29.3178 8.9723 30.3963C8.8381 30.4739 8.67558 30.5022 8.63372 30.517H8.63495Z" fill="#AAF082"/>
<path d="M21.4405 31.9969C19.43 31.9969 17.4195 32.0092 15.4102 31.9846C15.0901 31.9809 14.6985 31.8923 14.4695 31.6941C14.0891 31.3653 14.2479 30.7251 14.7564 30.4198C15.8928 29.7365 17.044 29.0753 18.1927 28.4129C20.213 27.2482 22.2285 26.0724 24.2649 24.9348C25.1957 24.414 25.4407 24.5125 25.9024 25.4704C26.7236 27.1756 27.5337 28.8869 28.3352 30.602C28.7353 31.4577 28.3709 31.9969 27.4106 31.9982C25.421 32.0006 23.4314 31.9982 21.4418 31.9982L21.4405 31.9969Z" fill="#AAF082"/>
<path d="M31.7838 16.8175C31.5671 17.0983 31.4317 17.4184 31.1916 17.5599C29.9468 18.295 28.6799 18.9943 27.4094 19.6874C26.8122 20.0137 26.3887 19.8758 26.1018 19.2664C24.5382 15.9557 22.9808 12.6438 21.4307 9.32698C21.246 8.93177 21.1438 8.50208 21.5747 8.17335C21.9404 7.89387 22.2851 7.97267 22.6151 8.26446C23.2369 8.8148 23.8783 9.34421 24.4939 9.90194C25.9701 11.2415 27.4328 12.5958 28.9053 13.939C29.7154 14.6777 30.5427 15.398 31.3467 16.1441C31.508 16.2943 31.5979 16.5233 31.785 16.8175H31.7838Z" fill="#AAF082"/>
<path d="M32.1298 25.1306C32.1298 26.2153 32.1039 27.3012 32.1421 28.3847C32.1593 28.8562 31.9845 29.1505 31.5671 29.2539C31.1448 29.3573 30.837 29.1394 30.6499 28.7429C29.9616 27.2901 29.266 25.8422 28.5778 24.3907C28.4239 24.0656 28.2921 23.7283 28.1493 23.3983C27.9843 23.0154 28.1247 22.7286 28.4534 22.5291C29.3103 22.0083 30.1672 21.4863 31.0402 20.9926C31.5449 20.7057 32.1211 21.0849 32.1261 21.6931C32.1359 22.8394 32.1285 23.9856 32.1285 25.1318L32.1298 25.1306Z" fill="#AAF082"/>
<path d="M87.9628 17.6104C87.9628 16.3382 87.9628 15.2271 87.9628 14.1147C87.9628 13.0022 87.9628 11.894 87.9628 10.7488H91.7537V29.6363H88.2723V27.4727C87.3595 28.7549 86.3184 29.5308 84.9406 29.8303C82.4804 30.3651 80.2826 29.391 78.8777 27.6082C77.7254 26.1449 77.2019 24.4106 77.2861 22.5708C77.3987 20.112 78.2802 18.0054 80.4181 16.5478C82.4661 15.1515 85.8263 15.1858 87.5321 17.2096C87.622 17.3151 87.7346 17.4007 87.9614 17.6104H87.9628ZM88.0156 22.7861C87.95 22.3483 87.9429 21.8919 87.8059 21.4783C87.4351 20.3601 86.7548 19.4887 85.5767 19.1421C84.3573 18.7827 83.2563 19.068 82.3535 19.948C81.1055 21.166 80.9615 22.6877 81.4692 24.2409C82.0582 26.0422 83.9637 26.9721 85.6252 26.4016C87.0971 25.8968 87.9628 24.5618 88.0156 22.7861Z" fill="white"/>
<path d="M62.0012 17.7474V16.0416H65.5183V29.6193H62.0226V27.8251C61.5263 28.2787 61.1483 28.7137 60.6891 29.0289C58.6225 30.4423 55.8071 30.2925 53.836 28.7137C52.0404 27.2746 51.2318 25.3877 51.1505 23.11C51.0877 21.3415 51.4271 19.6885 52.464 18.2651C54.4336 15.5596 57.8537 14.6739 60.6819 16.5665C61.144 16.876 61.5206 17.311 62.0012 17.7474ZM61.86 22.7406C61.6504 22.0603 61.5448 21.3215 61.2111 20.7097C59.8833 18.2737 56.9081 18.6388 55.7657 20.393C55.0355 21.5141 54.8187 22.675 55.1582 23.9272C55.6474 25.7286 57.2519 26.9922 59.414 26.4317C60.7433 26.0866 61.8515 24.1811 61.8586 22.7406H61.86Z" fill="white"/>
<path d="M114.234 29.9559C109.964 30.1285 106.912 26.8068 106.947 22.7863C106.984 18.6844 109.94 15.3856 114.64 15.5596C118.521 15.7036 121.695 18.5746 121.609 23.0173C121.538 26.7383 118.607 30.1884 114.234 29.9559ZM117.624 22.7249C117.624 22.4882 117.66 22.1744 117.614 21.8735C117.573 21.6039 117.453 21.3429 117.347 21.0862C116.366 18.683 113.519 18.3764 112.076 19.8682C111.141 20.8352 110.753 21.9804 110.928 23.2655C111.277 25.8284 113.005 27.0821 115.479 26.3889C116.579 26.0808 117.787 24.5662 117.624 22.7235V22.7249Z" fill="white"/>
<path d="M130.236 16.0102H133.836V17.7045C135.178 16.2013 136.756 15.5395 138.618 15.5623C141.107 15.5923 143.171 17.3979 143.259 19.7925C143.379 23.0529 143.289 26.3218 143.289 29.6278H139.594V28.8776C139.594 26.5486 139.574 24.2181 139.601 21.8891C139.619 20.2561 138.839 19.2064 137.266 18.9995C136.185 18.8569 134.633 19.5016 134.176 21.0319C134.004 21.6053 133.897 22.22 133.889 22.8161C133.856 25.0696 133.876 27.3244 133.876 29.6235H130.236V16.0102Z" fill="white"/>
<path d="M106.662 18.3079C105.836 18.9854 105.055 19.6571 104.23 20.2675C104.112 20.3545 103.696 20.2219 103.556 20.0664C102.466 18.8627 100.709 18.6188 99.29 19.5202C98.3815 20.0978 97.8409 20.9407 97.6898 21.9533C97.5272 23.0458 97.6042 24.1412 98.2802 25.121C99.4226 26.7783 101.988 27.0735 103.439 25.6744C103.624 25.4961 103.761 25.2693 103.905 25.0868C104.892 25.8855 105.778 26.6043 106.658 27.3174C104.432 30.7418 98.7937 30.5207 96.3348 28.5796C92.842 25.8227 92.9033 20.1606 95.8499 17.4536C98.7167 14.8193 104.011 14.7167 106.662 18.3051V18.3079Z" fill="white"/>
<path d="M77.1563 15.6152C77.0651 16.4253 76.9895 17.2097 76.8854 17.9884C76.8283 18.4191 76.8625 19.0239 76.6044 19.2235C76.3291 19.436 75.7558 19.2492 75.3122 19.2606C73.7034 19.3034 72.1831 20.8665 72.1232 22.5909C72.0504 24.6703 72.0219 26.7512 71.9748 28.8306C71.9691 29.0859 71.9748 29.3426 71.9748 29.6336H68.3294V16.0316H71.9335V18.0626C73.2185 16.0587 74.9115 15.3499 77.1563 15.6152Z" fill="white"/>
<path d="M127.404 29.6535H123.676V16.0344H127.404V29.6535Z" fill="white"/>
<path d="M127.743 12.2321C127.743 13.567 126.896 14.4056 125.547 14.407C124.172 14.4085 123.335 13.5641 123.336 12.175C123.336 10.8401 124.183 10.0014 125.533 10C126.907 9.99858 127.745 10.8429 127.743 12.2321Z" fill="white"/>
<defs>
<linearGradient id="paint0_linear_739_2" x1="1.73643" y1="-0.990503" x2="39.6624" y2="39.5138" gradientUnits="userSpaceOnUse">
<stop stop-color="#F2F2F2" stop-opacity="0.3"/>
<stop offset="1" stop-color="#82868A" stop-opacity="0.3"/>
</linearGradient>
</defs>
</svg>
